<mxfile host="Electron" modified="2024-03-15T15:24:04.121Z" agent="Mozilla/5.0 (Windows NT 10.0; Win64; x64) AppleWebKit/537.36 (KHTML, like Gecko) draw.io/24.0.4 Chrome/120.0.6099.109 Electron/28.1.0 Safari/537.36" etag="NpPX8MKNduTm8axhPUIV" version="24.0.4" type="device">
  <diagram name="第 1 页" id="Jd7-73F074mrr_AuGgJH">
    <mxGraphModel dx="1789" dy="177" grid="0" gridSize="10" guides="1" tooltips="1" connect="1" arrows="1" fold="1" page="0" pageScale="1" pageWidth="827" pageHeight="1169" math="0" shadow="0">
      <root>
        <mxCell id="0" />
        <mxCell id="1" parent="0" />
        <mxCell id="nYVsloN-27Saqx4OQUJ_-41" style="edgeStyle=orthogonalEdgeStyle;rounded=0;orthogonalLoop=1;jettySize=auto;html=1;exitX=1;exitY=0.25;exitDx=0;exitDy=0;entryX=0;entryY=0.25;entryDx=0;entryDy=0;movable=0;resizable=0;rotatable=0;deletable=0;editable=0;locked=1;connectable=0;" edge="1" parent="1">
          <mxGeometry relative="1" as="geometry">
            <mxPoint x="-286" y="501" as="sourcePoint" />
            <mxPoint x="91" y="501" as="targetPoint" />
          </mxGeometry>
        </mxCell>
        <mxCell id="nYVsloN-27Saqx4OQUJ_-58" value="1.告知node-red即将测试工程的基本信息" style="edgeLabel;html=1;align=center;verticalAlign=middle;resizable=0;points=[];fontSize=12;fontStyle=1" vertex="1" connectable="0" parent="nYVsloN-27Saqx4OQUJ_-41">
          <mxGeometry x="-0.1139" relative="1" as="geometry">
            <mxPoint as="offset" />
          </mxGeometry>
        </mxCell>
        <mxCell id="nYVsloN-27Saqx4OQUJ_-42" style="edgeStyle=orthogonalEdgeStyle;rounded=0;orthogonalLoop=1;jettySize=auto;html=1;exitX=0;exitY=0.75;exitDx=0;exitDy=0;entryX=1;entryY=0.75;entryDx=0;entryDy=0;fontSize=12;fontStyle=1" edge="1" parent="1">
          <mxGeometry relative="1" as="geometry">
            <mxPoint x="91" y="531" as="sourcePoint" />
            <mxPoint x="-286" y="531" as="targetPoint" />
          </mxGeometry>
        </mxCell>
        <mxCell id="nYVsloN-27Saqx4OQUJ_-59" value="2.node-red查询数据库，找到可以使用的硬件信息，并将其返回" style="edgeLabel;html=1;align=center;verticalAlign=middle;resizable=0;points=[];fontSize=12;fontStyle=1" vertex="1" connectable="0" parent="nYVsloN-27Saqx4OQUJ_-42">
          <mxGeometry x="-0.3108" y="-1" relative="1" as="geometry">
            <mxPoint x="-62" as="offset" />
          </mxGeometry>
        </mxCell>
        <mxCell id="nYVsloN-27Saqx4OQUJ_-52" style="edgeStyle=orthogonalEdgeStyle;rounded=0;orthogonalLoop=1;jettySize=auto;html=1;exitX=1;exitY=0.75;exitDx=0;exitDy=0;entryX=0;entryY=0.75;entryDx=0;entryDy=0;fontSize=12;fontStyle=1" edge="1" parent="1">
          <mxGeometry relative="1" as="geometry">
            <mxPoint x="-286" y="591" as="sourcePoint" />
            <mxPoint x="91" y="591" as="targetPoint" />
          </mxGeometry>
        </mxCell>
        <mxCell id="nYVsloN-27Saqx4OQUJ_-60" value="3.根据硬件信息，连接开发板，并告知node-red是否连接成功" style="edgeLabel;html=1;align=center;verticalAlign=middle;resizable=0;points=[];fontSize=12;fontStyle=1" vertex="1" connectable="0" parent="nYVsloN-27Saqx4OQUJ_-52">
          <mxGeometry x="-0.0281" y="1" relative="1" as="geometry">
            <mxPoint as="offset" />
          </mxGeometry>
        </mxCell>
        <mxCell id="nYVsloN-27Saqx4OQUJ_-53" style="edgeStyle=orthogonalEdgeStyle;rounded=0;orthogonalLoop=1;jettySize=auto;html=1;exitX=0;exitY=0.25;exitDx=0;exitDy=0;entryX=1;entryY=0.25;entryDx=0;entryDy=0;fontSize=12;fontStyle=1" edge="1" parent="1">
          <mxGeometry relative="1" as="geometry">
            <mxPoint x="91" y="621" as="sourcePoint" />
            <mxPoint x="-286" y="621" as="targetPoint" />
          </mxGeometry>
        </mxCell>
        <mxCell id="nYVsloN-27Saqx4OQUJ_-61" value="4.node-red根据消息更新数据库，防止其他runner影响" style="edgeLabel;html=1;align=center;verticalAlign=middle;resizable=0;points=[];fontSize=12;fontStyle=1" vertex="1" connectable="0" parent="nYVsloN-27Saqx4OQUJ_-53">
          <mxGeometry x="-0.1988" relative="1" as="geometry">
            <mxPoint x="-28" as="offset" />
          </mxGeometry>
        </mxCell>
        <mxCell id="nYVsloN-27Saqx4OQUJ_-54" style="edgeStyle=orthogonalEdgeStyle;rounded=0;orthogonalLoop=1;jettySize=auto;html=1;exitX=1;exitY=0.25;exitDx=0;exitDy=0;entryX=0;entryY=0.25;entryDx=0;entryDy=0;fontSize=12;fontStyle=1" edge="1" parent="1">
          <mxGeometry relative="1" as="geometry">
            <mxPoint x="-286" y="681" as="sourcePoint" />
            <mxPoint x="91" y="681" as="targetPoint" />
          </mxGeometry>
        </mxCell>
        <mxCell id="nYVsloN-27Saqx4OQUJ_-62" value="5.告知node-red编译，烧录，采集log等步骤是否成功" style="edgeLabel;html=1;align=center;verticalAlign=middle;resizable=0;points=[];fontSize=12;fontStyle=1" vertex="1" connectable="0" parent="nYVsloN-27Saqx4OQUJ_-54">
          <mxGeometry x="-0.3025" y="-1" relative="1" as="geometry">
            <mxPoint x="43" y="-1" as="offset" />
          </mxGeometry>
        </mxCell>
        <mxCell id="nYVsloN-27Saqx4OQUJ_-55" style="edgeStyle=orthogonalEdgeStyle;rounded=0;orthogonalLoop=1;jettySize=auto;html=1;exitX=0;exitY=0.75;exitDx=0;exitDy=0;entryX=1;entryY=0.75;entryDx=0;entryDy=0;fontSize=12;fontStyle=1" edge="1" parent="1">
          <mxGeometry relative="1" as="geometry">
            <mxPoint x="91" y="711" as="sourcePoint" />
            <mxPoint x="-286" y="711" as="targetPoint" />
          </mxGeometry>
        </mxCell>
        <mxCell id="nYVsloN-27Saqx4OQUJ_-63" value="6.更新数据库，通知runner将log发送上来" style="edgeLabel;html=1;align=center;verticalAlign=middle;resizable=0;points=[];fontSize=12;fontStyle=1" vertex="1" connectable="0" parent="nYVsloN-27Saqx4OQUJ_-55">
          <mxGeometry x="0.1635" y="1" relative="1" as="geometry">
            <mxPoint as="offset" />
          </mxGeometry>
        </mxCell>
        <mxCell id="nYVsloN-27Saqx4OQUJ_-56" style="edgeStyle=orthogonalEdgeStyle;rounded=0;orthogonalLoop=1;jettySize=auto;html=1;exitX=1;exitY=0.75;exitDx=0;exitDy=0;entryX=0;entryY=0.75;entryDx=0;entryDy=0;fontSize=12;fontStyle=1" edge="1" parent="1">
          <mxGeometry relative="1" as="geometry">
            <mxPoint x="-286" y="771" as="sourcePoint" />
            <mxPoint x="91" y="771" as="targetPoint" />
          </mxGeometry>
        </mxCell>
        <mxCell id="nYVsloN-27Saqx4OQUJ_-64" value="7.上传log原件，node-red开始解析，并存储到RGW" style="edgeLabel;html=1;align=center;verticalAlign=middle;resizable=0;points=[];fontSize=12;fontStyle=1" vertex="1" connectable="0" parent="nYVsloN-27Saqx4OQUJ_-56">
          <mxGeometry x="-0.0756" relative="1" as="geometry">
            <mxPoint x="1" as="offset" />
          </mxGeometry>
        </mxCell>
        <mxCell id="nYVsloN-27Saqx4OQUJ_-57" style="edgeStyle=orthogonalEdgeStyle;rounded=0;orthogonalLoop=1;jettySize=auto;html=1;exitX=0;exitY=0.25;exitDx=0;exitDy=0;entryX=1;entryY=0.25;entryDx=0;entryDy=0;fontSize=12;fontStyle=1" edge="1" parent="1">
          <mxGeometry relative="1" as="geometry">
            <mxPoint x="91" y="801" as="sourcePoint" />
            <mxPoint x="-286" y="801" as="targetPoint" />
          </mxGeometry>
        </mxCell>
        <mxCell id="nYVsloN-27Saqx4OQUJ_-65" value="8.通知runner将硬件断开连接" style="edgeLabel;html=1;align=center;verticalAlign=middle;resizable=0;points=[];fontSize=12;fontStyle=1" vertex="1" connectable="0" parent="nYVsloN-27Saqx4OQUJ_-57">
          <mxGeometry x="-0.1439" y="-1" relative="1" as="geometry">
            <mxPoint x="-30" y="1" as="offset" />
          </mxGeometry>
        </mxCell>
        <mxCell id="nYVsloN-27Saqx4OQUJ_-71" style="edgeStyle=orthogonalEdgeStyle;rounded=0;orthogonalLoop=1;jettySize=auto;html=1;exitX=1;exitY=0.25;exitDx=0;exitDy=0;entryX=0;entryY=0.25;entryDx=0;entryDy=0;fontSize=12;fontStyle=1" edge="1" parent="1">
          <mxGeometry relative="1" as="geometry">
            <mxPoint x="-286" y="861" as="sourcePoint" />
            <mxPoint x="91" y="861" as="targetPoint" />
          </mxGeometry>
        </mxCell>
        <mxCell id="nYVsloN-27Saqx4OQUJ_-72" value="9.通知node-red断开成功与否，node-red更新数据库" style="edgeLabel;html=1;align=center;verticalAlign=middle;resizable=0;points=[];fontSize=12;fontStyle=1" vertex="1" connectable="0" parent="nYVsloN-27Saqx4OQUJ_-71">
          <mxGeometry x="-0.0647" y="-1" relative="1" as="geometry">
            <mxPoint as="offset" />
          </mxGeometry>
        </mxCell>
        <mxCell id="nYVsloN-27Saqx4OQUJ_-68" value="gitlab runner" style="rounded=0;whiteSpace=wrap;html=1;fillColor=#e1d5e7;strokeColor=#9673a6;fontSize=15;fontStyle=1" vertex="1" parent="1">
          <mxGeometry x="-406" y="475" width="120" height="420" as="geometry" />
        </mxCell>
        <mxCell id="nYVsloN-27Saqx4OQUJ_-70" value="node-red" style="rounded=0;whiteSpace=wrap;html=1;fillColor=#e1d5e7;strokeColor=#9673a6;fontSize=15;fontStyle=1" vertex="1" parent="1">
          <mxGeometry x="91" y="475" width="120" height="420" as="geometry" />
        </mxCell>
      </root>
    </mxGraphModel>
  </diagram>
</mxfile>
